<mxfile host="app.diagrams.net" agent="Mozilla/5.0 (Windows NT 10.0; Win64; x64) AppleWebKit/537.36 (KHTML, like Gecko) Chrome/132.0.0.0 Safari/537.36 Edg/132.0.0.0" version="28.2.5">
  <diagram name="Seite-1" id="kRf3b0hVQ2kEpkJ5Oggo">
    <mxGraphModel dx="3756" dy="760" grid="1" gridSize="21" guides="1" tooltips="1" connect="1" arrows="1" fold="1" page="1" pageScale="1" pageWidth="1169" pageHeight="827" math="0" shadow="0">
      <root>
        <mxCell id="0" />
        <mxCell id="1" parent="0" />
        <mxCell id="rGcZd73icu3IrPGJAguL-1" value="IT Leitung&lt;br&gt;Dominic Weiß" style="rounded=1;whiteSpace=wrap;html=1;fillColor=#f0a30a;fontColor=#000000;strokeColor=#BD7000;" parent="1" vertex="1">
          <mxGeometry x="-644" y="42" width="120" height="60" as="geometry" />
        </mxCell>
        <mxCell id="rGcZd73icu3IrPGJAguL-2" value="Stv. IT Leitung&lt;div&gt;Daniel Herzog&lt;/div&gt;" style="rounded=1;whiteSpace=wrap;html=1;fillColor=#ffe6cc;strokeColor=#d79b00;" parent="1" vertex="1">
          <mxGeometry x="-1253" y="168" width="126" height="63" as="geometry" />
        </mxCell>
        <mxCell id="rGcZd73icu3IrPGJAguL-6" value="&lt;div&gt;&lt;br&gt;&lt;/div&gt;&lt;div&gt;Armin Essig&lt;/div&gt;" style="rounded=1;whiteSpace=wrap;html=1;fillColor=#ffe6cc;strokeColor=#d79b00;" parent="1" vertex="1">
          <mxGeometry x="-1118" y="168" width="126" height="63" as="geometry" />
        </mxCell>
        <mxCell id="rGcZd73icu3IrPGJAguL-9" value="&lt;div&gt;&lt;br&gt;&lt;/div&gt;&lt;div&gt;Alexander Kühn&lt;/div&gt;" style="rounded=1;whiteSpace=wrap;html=1;fillColor=#ffe6cc;strokeColor=#d79b00;" parent="1" vertex="1">
          <mxGeometry x="-983" y="168" width="126" height="63" as="geometry" />
        </mxCell>
        <mxCell id="rGcZd73icu3IrPGJAguL-10" value="&lt;div&gt;&lt;br&gt;&lt;/div&gt;&lt;div&gt;Anita Winter-Schmitz&lt;/div&gt;" style="rounded=1;whiteSpace=wrap;html=1;fillColor=#fff2cc;strokeColor=#d6b656;" parent="1" vertex="1">
          <mxGeometry x="-578" y="168" width="126" height="63" as="geometry" />
        </mxCell>
        <mxCell id="rGcZd73icu3IrPGJAguL-11" value="&lt;div&gt;&lt;br&gt;&lt;/div&gt;&lt;div&gt;Andreas Doppelhammer&lt;/div&gt;" style="rounded=1;whiteSpace=wrap;html=1;fillColor=#fff2cc;strokeColor=#d6b656;" parent="1" vertex="1">
          <mxGeometry x="-443" y="168" width="126" height="63" as="geometry" />
        </mxCell>
        <mxCell id="rGcZd73icu3IrPGJAguL-12" value="&lt;div&gt;&lt;br&gt;&lt;/div&gt;&lt;div&gt;Melanie Schöll&lt;/div&gt;" style="rounded=1;whiteSpace=wrap;html=1;fillColor=#fff2cc;strokeColor=#d6b656;" parent="1" vertex="1">
          <mxGeometry x="-848" y="168" width="126" height="63" as="geometry" />
        </mxCell>
        <mxCell id="rGcZd73icu3IrPGJAguL-13" value="&lt;div&gt;&lt;br&gt;&lt;/div&gt;&lt;div&gt;Andree Müller&lt;/div&gt;" style="rounded=1;whiteSpace=wrap;html=1;fillColor=#fff2cc;strokeColor=#d6b656;" parent="1" vertex="1">
          <mxGeometry x="-713" y="168" width="126" height="63" as="geometry" />
        </mxCell>
        <mxCell id="rGcZd73icu3IrPGJAguL-14" value="&lt;div&gt;&lt;br&gt;&lt;/div&gt;&lt;div&gt;Michael Buckel&lt;/div&gt;" style="rounded=1;whiteSpace=wrap;html=1;fillColor=#dae8fc;strokeColor=#6c8ebf;" parent="1" vertex="1">
          <mxGeometry x="-308" y="168" width="126" height="63" as="geometry" />
        </mxCell>
        <mxCell id="rGcZd73icu3IrPGJAguL-15" value="&lt;div&gt;&lt;br&gt;&lt;/div&gt;&lt;div&gt;Carmen Kirschmer&lt;/div&gt;" style="rounded=1;whiteSpace=wrap;html=1;fillColor=#dae8fc;strokeColor=#6c8ebf;" parent="1" vertex="1">
          <mxGeometry x="-173" y="168" width="126" height="63" as="geometry" />
        </mxCell>
        <mxCell id="rGcZd73icu3IrPGJAguL-16" value="&lt;div&gt;&lt;br&gt;Auszubildende&lt;/div&gt;" style="rounded=1;whiteSpace=wrap;html=1;" parent="1" vertex="1">
          <mxGeometry x="-35" y="169.5" width="120" height="60" as="geometry" />
        </mxCell>
      </root>
    </mxGraphModel>
  </diagram>
</mxfile>
